REM DIRINDEX 1\2\4,1\2\5,1\2\6,1\3\7,1\3\8,1\3\9,1\3\10
REM DIRNAME folder01,folder02,folder03,folder04,folder05,folder06,folder07,folder08,folder09,folder10
TITLE ""
FILE "a_127.mp3" MP3
  TRACK 01 AUDIO
    TITLE "0:"
    INDEX 01 00:00:00
  TRACK 02 AUDIO
    TITLE "4:cjc057_02460"
    INDEX 01 00:00:13
  TRACK 03 AUDIO
    TITLE "0:"
    INDEX 01 00:01:21
  TRACK 04 AUDIO
    TITLE "5:cjc057_02461"
    INDEX 01 00:01:46
  TRACK 05 AUDIO
    TITLE "0:"
    INDEX 01 00:02:53
  TRACK 06 AUDIO
    TITLE "4:cjc057_02462"
    INDEX 01 00:03:57
  TRACK 07 AUDIO
    TITLE "0:"
    INDEX 01 00:04:72
  TRACK 08 AUDIO
    TITLE "5:cjc057_02463"
    INDEX 01 00:05:26
  TRACK 09 AUDIO
    TITLE "0:"
    INDEX 01 00:06:53
  TRACK 10 AUDIO
    TITLE "4:cjc057_02464"
    INDEX 01 00:07:56
  TRACK 11 AUDIO
    TITLE "0:"
    INDEX 01 00:08:60
  TRACK 12 AUDIO
    TITLE "5:cjc057_02465"
    INDEX 01 00:09:16
  TRACK 13 AUDIO
    TITLE "0:"
    INDEX 01 00:12:30
  TRACK 14 AUDIO
    TITLE "4:cjc057_02466"
    INDEX 01 00:13:35
  TRACK 15 AUDIO
    TITLE "0:"
    INDEX 01 00:14:51
  TRACK 16 AUDIO
    TITLE "5:cjc057_02467"
    INDEX 01 00:15:05
  TRACK 17 AUDIO
    TITLE "0:"
    INDEX 01 00:16:36
  TRACK 18 AUDIO
    TITLE "4:cjc057_02468"
    INDEX 01 00:17:37
  TRACK 19 AUDIO
    TITLE "0:"
    INDEX 01 00:18:58
  TRACK 20 AUDIO
    TITLE "5:cjc057_02469"
    INDEX 01 00:19:13
  TRACK 21 AUDIO
    TITLE "0:"
    INDEX 01 00:20:47
  TRACK 22 AUDIO
    TITLE "4:cjc057_02470"
    INDEX 01 00:21:51
  TRACK 23 AUDIO
    TITLE "0:"
    INDEX 01 00:22:66
  TRACK 24 AUDIO
    TITLE "5:cjc057_02471"
    INDEX 01 00:23:20
  TRACK 25 AUDIO
    TITLE "0:"
    INDEX 01 00:25:39
  TRACK 26 AUDIO
    TITLE "4:cjc057_02472"
    INDEX 01 00:26:42
  TRACK 27 AUDIO
    TITLE "0:"
    INDEX 01 00:27:45
  TRACK 28 AUDIO
    TITLE "5:cjc057_02473"
    INDEX 01 00:28:00
  TRACK 29 AUDIO
    TITLE "0:"
    INDEX 01 00:28:72
  TRACK 30 AUDIO
    TITLE "4:cjc057_02474"
    INDEX 01 00:30:01
  TRACK 31 AUDIO
    TITLE "0:"
    INDEX 01 00:31:18
  TRACK 32 AUDIO
    TITLE "5:cjc057_02475"
    INDEX 01 00:31:45
  TRACK 33 AUDIO
    TITLE "0:"
    INDEX 01 00:34:00
  TRACK 34 AUDIO
    TITLE "4:cjc057_02476"
    INDEX 01 00:35:04
  TRACK 35 AUDIO
    TITLE "0:"
    INDEX 01 00:36:15
  TRACK 36 AUDIO
    TITLE "5:cjc057_02477"
    INDEX 01 00:36:44
  TRACK 37 AUDIO
    TITLE "0:"
    INDEX 01 00:39:35
  TRACK 38 AUDIO
    TITLE "4:cjc057_02478"
    INDEX 01 00:40:40
  TRACK 39 AUDIO
    TITLE "0:"
    INDEX 01 00:41:45
  TRACK 40 AUDIO
    TITLE "5:cjc057_02479"
    INDEX 01 00:42:00
  TRACK 41 AUDIO
    TITLE "0:"
    INDEX 01 00:43:15
  TRACK 42 AUDIO
    TITLE "4:cjc057_02480"
    INDEX 01 00:44:16
  TRACK 43 AUDIO
    TITLE "0:"
    INDEX 01 00:45:32
  TRACK 44 AUDIO
    TITLE "5:cjc057_02481"
    INDEX 01 00:45:61
  TRACK 45 AUDIO
    TITLE "0:"
    INDEX 01 00:47:03
  TRACK 46 AUDIO
    TITLE "4:cjc057_02482"
    INDEX 01 00:48:08
  TRACK 47 AUDIO
    TITLE "0:"
    INDEX 01 00:49:33
  TRACK 48 AUDIO
    TITLE "5:cjc057_02483"
    INDEX 01 00:49:63
  TRACK 49 AUDIO
    TITLE "0:"
    INDEX 01 00:51:03
  TRACK 50 AUDIO
    TITLE "4:cjc057_02484"
    INDEX 01 00:52:08
  TRACK 51 AUDIO
    TITLE "0:"
    INDEX 01 00:53:09
  TRACK 52 AUDIO
    TITLE "5:cjc057_02485"
    INDEX 01 00:53:39
  TRACK 53 AUDIO
    TITLE "0:"
    INDEX 01 00:54:48
  TRACK 54 AUDIO
    TITLE "4:cjc057_02486"
    INDEX 01 00:55:51
  TRACK 55 AUDIO
    TITLE "0:"
    INDEX 01 00:56:72
  TRACK 56 AUDIO
    TITLE "5:cjc057_02487"
    INDEX 01 00:57:27
  TRACK 57 AUDIO
    TITLE "0:"
    INDEX 01 00:58:48
  TRACK 58 AUDIO
    TITLE "4:cjc057_02488"
    INDEX 01 00:59:55
  TRACK 59 AUDIO
    TITLE "0:"
    INDEX 01 01:00:57
  TRACK 60 AUDIO
    TITLE "5:cjc057_02489"
    INDEX 01 01:01:11
  TRACK 61 AUDIO
    TITLE "0:"
    INDEX 01 01:03:20
  TRACK 62 AUDIO
    TITLE "4:cjc057_02490"
    INDEX 01 01:04:25
  TRACK 63 AUDIO
    TITLE "0:"
    INDEX 01 01:05:60
  TRACK 64 AUDIO
    TITLE "5:cjc057_02491"
    INDEX 01 01:06:12
  TRACK 65 AUDIO
    TITLE "0:"
    INDEX 01 01:07:29
  TRACK 66 AUDIO
    TITLE "4:cjc057_02492"
    INDEX 01 01:08:35
  TRACK 67 AUDIO
    TITLE "0:"
    INDEX 01 01:09:42
  TRACK 68 AUDIO
    TITLE "5:cjc057_02493"
    INDEX 01 01:09:73
  TRACK 69 AUDIO
    TITLE "0:"
    INDEX 01 01:11:17
  TRACK 70 AUDIO
    TITLE "4:cjc057_02494"
    INDEX 01 01:12:23
  TRACK 71 AUDIO
    TITLE "0:"
    INDEX 01 01:13:36
  TRACK 72 AUDIO
    TITLE "5:cjc057_02495"
    INDEX 01 01:13:65
  TRACK 73 AUDIO
    TITLE "0:"
    INDEX 01 01:14:66
  TRACK 74 AUDIO
    TITLE "4:cjc057_02496"
    INDEX 01 01:15:70
  TRACK 75 AUDIO
    TITLE "0:"
    INDEX 01 01:17:12
  TRACK 76 AUDIO
    TITLE "5:cjc057_02497"
    INDEX 01 01:17:41
  TRACK 77 AUDIO
    TITLE "0:"
    INDEX 01 01:18:53
  TRACK 78 AUDIO
    TITLE "4:cjc057_02498"
    INDEX 01 01:19:58
  TRACK 79 AUDIO
    TITLE "0:"
    INDEX 01 01:20:69
  TRACK 80 AUDIO
    TITLE "5:cjc057_02499"
    INDEX 01 01:21:23
  TRACK 81 AUDIO
    TITLE "0:"
    INDEX 01 01:23:28
  TRACK 82 AUDIO
    TITLE "4:cjc057_02500"
    INDEX 01 01:24:32
  TRACK 83 AUDIO
    TITLE "0:"
    INDEX 01 01:25:35
  TRACK 84 AUDIO
    TITLE "5:cjc057_02501"
    INDEX 01 01:25:64
  TRACK 85 AUDIO
    TITLE "0:"
    INDEX 01 01:27:08
  TRACK 86 AUDIO
    TITLE "4:cjc057_02502"
    INDEX 01 01:28:12
  TRACK 87 AUDIO
    TITLE "0:"
    INDEX 01 01:29:39
  TRACK 88 AUDIO
    TITLE "5:cjc057_02503"
    INDEX 01 01:29:68
  TRACK 89 AUDIO
    TITLE "0:"
    INDEX 01 01:31:18
  TRACK 90 AUDIO
    TITLE "4:cjc057_02504"
    INDEX 01 01:32:25
  TRACK 91 AUDIO
    TITLE "0:"
    INDEX 01 01:33:38
  TRACK 92 AUDIO
    TITLE "5:cjc057_02505"
    INDEX 01 01:33:68
  TRACK 93 AUDIO
    TITLE "0:"
    INDEX 01 01:35:14
  TRACK 94 AUDIO
    TITLE "4:cjc057_02506"
    INDEX 01 01:36:17
  TRACK 95 AUDIO
    TITLE "0:"
    INDEX 01 01:37:26
  TRACK 96 AUDIO
    TITLE "5:cjc057_02507"
    INDEX 01 01:37:56
  TRACK 97 AUDIO
    TITLE "0:"
    INDEX 01 01:39:53
  TRACK 98 AUDIO
    TITLE "4:cjc057_02508"
    INDEX 01 01:40:58
  TRACK 99 AUDIO
    TITLE "0:"
    INDEX 01 01:41:57
  TRACK 100 AUDIO
    TITLE "5:cjc057_02509"
    INDEX 01 01:42:12
  TRACK 101 AUDIO
    TITLE "0:"
    INDEX 01 01:44:48
  TRACK 102 AUDIO
    TITLE "4:cjc057_02510"
    INDEX 01 01:45:49
  TRACK 103 AUDIO
    TITLE "0:"
    INDEX 01 01:46:66
  TRACK 104 AUDIO
    TITLE "5:cjc057_02511"
    INDEX 01 01:47:21
  TRACK 105 AUDIO
    TITLE "0:"
    INDEX 01 01:48:42
  TRACK 106 AUDIO
    TITLE "4:cjc057_02512"
    INDEX 01 01:49:43
  TRACK 107 AUDIO
    TITLE "0:"
    INDEX 01 01:50:53
  TRACK 108 AUDIO
    TITLE "5:cjc057_02513"
    INDEX 01 01:51:07
  TRACK 109 AUDIO
    TITLE "0:"
    INDEX 01 01:52:08
  TRACK 110 AUDIO
    TITLE "4:cjc057_02514"
    INDEX 01 01:53:12
  TRACK 111 AUDIO
    TITLE "0:"
    INDEX 01 01:54:21
  TRACK 112 AUDIO
    TITLE "5:cjc057_02515"
    INDEX 01 01:54:52
  TRACK 113 AUDIO
    TITLE "0:"
    INDEX 01 01:57:00
